<?xml version="1.0" standalone="no"?>
<!DOCTYPE svg PUBLIC "-//W3C//DTD SVG 20010904//EN"
 "http://www.w3.org/TR/2001/REC-SVG-20010904/DTD/svg10.dtd">
<svg version="1.0" xmlns="http://www.w3.org/2000/svg"
 width="441.000000pt" height="102.000000pt" viewBox="0 0 441.000000 102.000000"
 preserveAspectRatio="xMidYMid meet">

<g transform="translate(0.000000,102.000000) scale(0.100000,-0.100000)"
fill="#000000" stroke="none">
<path d="M330 1011 c-93 -29 -177 -108 -206 -193 -32 -98 -3 -165 101 -228
155 -96 195 -138 195 -208 0 -74 -87 -142 -183 -142 -65 0 -105 17 -136 56
-28 36 -29 120 -1 174 19 37 19 40 3 40 -34 0 -81 -38 -93 -75 -28 -85 13
-179 94 -216 52 -24 155 -25 220 -3 63 22 130 86 146 141 31 103 -12 177 -156
263 -45 28 -94 64 -108 81 -84 100 48 296 192 287 45 -3 47 -4 50 -37 2 -20
-8 -65 -23 -107 -29 -78 -30 -137 -4 -142 33 -6 97 178 85 243 -12 61 -92 91
-176 66z"/>
<path d="M3153 1001 c-89 -41 -161 -149 -135 -205 5 -13 19 -26 30 -28 17 -5
20 1 25 49 9 85 69 173 119 173 10 0 18 -6 18 -12 0 -7 -23 -81 -50 -164 -49
-146 -51 -150 -85 -163 -19 -7 -40 -21 -45 -32 -10 -17 -7 -19 24 -19 l34 0
-29 -92 c-31 -98 -79 -279 -79 -297 0 -17 25 -13 44 7 9 11 42 102 74 203 l57
184 40 7 c22 4 75 7 118 7 84 1 87 -2 66 -56 -25 -67 -59 -223 -59 -274 0 -42
5 -60 18 -72 40 -36 49 -23 55 76 4 76 32 235 53 308 3 10 20 20 39 23 44 9
55 26 16 26 -16 0 -32 4 -35 8 -5 9 79 314 95 345 13 23 0 22 -27 -4 -15 -14
-41 -78 -75 -179 l-52 -158 -111 5 c-61 3 -112 7 -114 8 -2 2 15 63 37 137 23
74 41 145 41 159 0 51 -37 61 -107 30z"/>
<path d="M4227 971 c-74 -82 -172 -279 -222 -448 -40 -133 -43 -139 -96 -188
-35 -32 -56 -45 -78 -45 -53 0 -53 45 0 173 22 53 26 73 18 83 -22 27 -38 13
-85 -77 -59 -111 -107 -169 -140 -169 -46 0 -45 89 2 207 22 53 24 67 13 74
-8 5 -17 9 -22 9 -25 0 -87 -162 -87 -229 0 -73 46 -118 101 -99 28 10 57 38
90 88 l16 25 -4 -32 c-10 -64 36 -100 102 -82 21 6 60 31 86 56 l49 46 0 -37
c0 -68 43 -116 103 -116 39 1 104 37 132 74 20 27 35 36 57 36 48 0 95 26 123
69 39 58 26 70 -15 14 -26 -36 -45 -50 -73 -57 -20 -5 -39 -7 -43 -4 -3 3 2
32 12 63 17 61 15 125 -6 150 -13 15 -56 20 -85 9 -38 -15 -59 -109 -34 -157
6 -12 23 -35 38 -50 l26 -28 -42 -40 c-47 -44 -80 -50 -108 -19 -15 17 -17 32
-12 107 7 115 26 166 82 215 110 97 214 316 186 391 -15 38 -42 34 -84 -12z
m33 -122 c-27 -68 -100 -186 -135 -219 l-27 -25 6 25 c4 14 30 70 57 126 81
163 153 231 99 93z m-28 -354 c9 -33 -8 -135 -22 -135 -28 0 -51 109 -34 155
11 27 47 14 56 -20z"/>
<path d="M732 794 c-27 -19 -26 -57 1 -62 48 -9 95 26 81 62 -8 21 -53 21 -82
0z"/>
<path d="M2466 675 c-9 -9 -16 -29 -16 -44 0 -37 -50 -115 -113 -177 -29 -28
-64 -69 -80 -92 -29 -45 -84 -79 -111 -69 -24 9 -20 59 11 121 26 53 26 86 1
86 -7 0 -42 -39 -78 -86 -112 -149 -194 -179 -174 -65 20 113 138 261 208 261
25 0 46 -30 46 -67 0 -34 1 -35 23 -21 56 38 12 108 -68 108 -94 0 -196 -84
-260 -215 -39 -78 -82 -125 -116 -125 -32 0 -34 27 -9 122 26 100 20 133 -25
144 -46 11 -103 -26 -160 -106 -13 -19 -16 -20 -10 -5 14 39 18 132 6 153 -14
26 -58 29 -99 8 -28 -15 -91 -78 -132 -131 l-22 -30 8 35 c14 64 11 85 -14 88
-33 5 -48 -12 -55 -63 -4 -25 -14 -60 -23 -78 -20 -40 -90 -114 -125 -132
l-26 -14 32 102 c18 56 35 119 39 140 6 32 4 37 -12 37 -29 0 -50 -22 -61 -66
-19 -74 -114 -174 -164 -174 -21 0 -31 40 -24 87 9 55 69 138 122 169 36 21
54 25 86 21 33 -4 39 -2 39 13 0 34 -50 39 -126 13 -70 -23 -169 -123 -186
-187 -31 -116 -162 -189 -184 -102 -8 35 13 103 56 178 49 86 56 106 36 114
-22 8 -59 -18 -85 -60 -31 -50 -71 -173 -71 -218 0 -102 119 -118 205 -28 l28
29 21 -32 c40 -59 105 -47 181 34 26 28 44 42 41 32 -3 -10 -14 -45 -24 -78
-17 -57 -20 -61 -82 -97 -83 -47 -140 -107 -140 -146 0 -36 28 -62 65 -62 41
0 115 80 160 174 27 56 45 81 73 98 20 12 54 38 74 56 l38 34 -14 -40 c-11
-29 -11 -43 -3 -51 24 -24 43 -9 79 62 64 124 175 243 208 222 18 -11 10 -84
-20 -177 -27 -86 -28 -94 -13 -106 25 -18 31 -16 54 30 33 66 120 188 141 199
49 26 60 -17 32 -119 -12 -43 -13 -64 -5 -85 21 -54 96 -55 153 0 20 19 28 23
28 11 0 -8 9 -27 21 -42 37 -48 105 -31 172 43 l37 41 0 -28 c0 -29 20 -54 52
-65 29 -10 88 13 129 50 22 20 41 34 43 32 1 -2 8 -18 15 -36 15 -37 44 -59
93 -68 46 -9 113 19 135 55 9 16 28 32 42 35 37 9 79 43 96 75 25 48 17 55
-14 13 -31 -43 -67 -73 -88 -73 -9 0 -13 16 -13 48 0 27 -11 86 -25 133 -14
46 -25 102 -23 123 3 44 -11 56 -36 31z m17 -261 c8 -71 -2 -84 -48 -60 -45
24 -82 74 -69 91 5 6 27 36 49 65 l40 54 11 -49 c6 -28 13 -73 17 -101z m-102
-40 c13 -15 41 -34 62 -43 l38 -16 -21 -23 c-30 -32 -72 -29 -104 9 -32 37
-35 99 -6 99 4 0 17 -12 31 -26z m-1421 -181 c0 -30 -99 -163 -120 -163 -17 0
-31 30 -25 52 10 32 33 57 84 90 46 29 61 34 61 21z"/>
</g>
</svg>
